<svg xmlns="http://www.w3.org/2000/svg" xmlns:xlink="http://www.w3.org/1999/xlink" version="1.1" width="192" height="192" viewBox="0 0 192 192" xml:space="preserve">
    <desc>
        Created with Fabric.js 5.4.0
    </desc>
    <defs/>
    <rect x="0" y="0" width="100%" height="100%" fill="transparent"/>
    <g transform="matrix(1 0 0 1 96.5 96.1)">
        <g style="">
            <g transform="matrix(1 0 0 1 0 0)">
                <rect x="-80.51647373107748" y="-87.00999999999999" rx="0" ry="0" width="161.03294746215497" height="174.01999999999998" stroke="rgb(255,255,255)" stroke-opacity="0" stroke-width="1" stroke-dasharray="none" stroke-linecap="butt" stroke-dashoffset="0" stroke-linejoin="miter" stroke-miterlimit="4" fill="rgb(255,255,255)" fill-opacity="0" fill-rule="nonzero" opacity="1"/>
            </g>
            <g transform="matrix(1 0 0 1 3.05 -8.14)">
                <path paint-order="stroke" transform=" translate(-99.56, -87.96)" d="M 120.01 50.29 L 120.01 50.29 Q 119.26 49.99 118.2 49.23 Q 117.15 48.48 115.2 47.81 Q 113.24 47.13 110.23 46.68 Q 107.23 46.23 102.56 46.53 L 102.56 46.53 L 102.56 31.34 Q 109.18 31.49 116.02 32.77 Q 122.87 34.04 127.08 36.75 L 127.08 36.75 Q 126.17 38.71 124.97 41.04 Q 123.77 43.37 122.72 45.4 Q 121.66 47.43 120.91 48.78 Q 120.16 50.14 120.01 50.29 Z M 68.12 62.32 L 68.12 62.32 Q 68.12 55.7 70.38 50.44 Q 72.64 45.17 76.47 41.19 Q 80.31 37.2 85.49 34.87 Q 90.68 32.54 96.4 31.79 L 96.4 31.79 L 96.4 47.58 Q 91.58 49.23 88.43 53.37 Q 85.27 57.51 85.27 61.72 L 85.27 61.72 Q 85.27 67.58 88.43 71.19 Q 91.58 74.8 96.4 77.51 L 96.4 77.51 L 96.4 94.65 Q 91.43 92.25 86.47 89.46 Q 81.51 86.68 77.45 82.92 Q 73.39 79.16 70.76 74.2 Q 68.12 69.24 68.12 62.32 Z M 67.37 136.61 L 70.53 123.68 Q 72.64 124.88 75.87 126.01 Q 79.1 127.14 82.56 128.11 Q 86.02 129.09 89.48 129.69 Q 92.94 130.29 95.95 130.29 L 95.95 130.29 L 96.4 130.29 L 96.4 144.58 L 96.1 144.58 Q 92.49 144.58 88.65 144.21 Q 84.82 143.83 80.91 142.93 Q 77 142.02 73.46 140.45 Q 69.93 138.87 67.37 136.61 L 67.37 136.61 Z M 102.56 98.11 L 102.56 80.52 Q 107.53 82.77 112.71 85.33 Q 117.9 87.88 122.11 91.57 Q 126.32 95.25 129.03 100.52 Q 131.74 105.78 131.74 113.6 L 131.74 113.6 Q 131.74 119.02 129.71 124.13 Q 127.68 129.24 123.99 133.38 Q 120.31 137.51 114.9 140.37 Q 109.48 143.23 102.56 144.13 L 102.56 144.13 L 102.56 129.69 Q 114.9 126.68 114.9 113.3 L 114.9 113.3 Q 114.9 108.04 111.44 104.58 Q 107.98 101.12 102.56 98.11 L 102.56 98.11 Z" stroke-linecap="butt" stroke="rgb(255,255,255)" stroke-width="0" stroke-dasharray="none" stroke-dashoffset="0" stroke-linejoin="miter" stroke-miterlimit="4" fill="rgb(0,0,0)" fill-rule="nonzero" opacity="1"/>
            </g>
        </g>
    </g>
</svg>
