<svg xmlns="http://www.w3.org/2000/svg" xml:space="preserve" data-version="1" data-id="lg_dgZ0ujuv9IAl5A2Ach" viewBox="662.5 -0.5 675 385"><g id="outer-wrapper" data-padding="20" transform="matrix(1,0,0,1,0,0)"><g id="inner-wrapper" transform="matrix(0.9703264094955489,0,0,0.9703264094955489,10,5.697329376854611)"><path d="M830.365302980137 0.12257362233893326C751.660302980137 5.687573622338931 688.7823029801369 68.56557362233892 683.217302980137 147.2705736223389C682.7823029801369 153.41357362233887 687.630302980137 158.64157362233888 693.7873029801369 158.64157362233888H831.143302980137C836.9953029801369 158.64157362233888 841.7393029801369 153.89757362233885 841.7393029801369 148.04557362233888V10.692573622338955C841.7393029801369 4.535573622338944 836.511302980137 -0.3104263776610594 830.3693029801369 0.12257362233896169ZM1025.630302980137 147.26757362233897C1020.065302980137 68.56257362233899 957.1883029801369 5.684573622338974 878.482302980137 0.11957362233897578C872.339302980137 -0.31542637766102644 867.1113029801369 4.532573622338987 867.1113029801369 10.689573622338969V148.045573622339C867.1113029801369 153.89757362233897 871.855302980137 158.641573622339 877.7073029801369 158.641573622339H1015.060302980137C1021.2173029801369 158.641573622339 1026.0623029801368 153.413573622339 1025.630302980137 147.271573622339Z "/><rect width="297.73" height="248.6" x="431.3803029801371" y="-355.0024263776611" fill="none" rx="0" ry="0" transform="translate(628.25 490.31)"/><path d="M1152.295302980137 194.94757362233892Q1151.2253029801368 194.5275736223389 1149.715302980137 193.44757362233892Q1148.215302980137 192.37757362233893 1145.425302980137 191.4075736223389Q1142.625302980137 190.43757362233887 1138.335302980137 189.7975736223389Q1134.0353029801367 189.1475736223389 1127.375302980137 189.57757362233886V167.87757362233887Q1136.8253029801367 168.0975736223389 1146.605302980137 169.92757362233888Q1156.375302980137 171.74757362233888 1162.3953029801369 175.61757362233888Q1161.105302980137 178.4075736223389 1159.3853029801367 181.73757362233889L1156.1653029801369 187.9675736223389Q1154.6653029801369 190.86757362233888 1153.585302980137 192.80757362233888Q1152.5153029801368 194.73757362233889 1152.295302980137 194.94757362233887M1078.1753029801366 212.13757362233886Q1078.1753029801366 202.68757362233887 1081.3953029801369 195.16757362233884Q1084.625302980137 187.64757362233885 1090.0953029801367 181.95757362233886Q1095.5753029801367 176.25757362233887 1102.9953029801368 172.92757362233888Q1110.4053029801366 169.5975736223389 1118.565302980137 168.5275736223389V191.0875736223389Q1111.695302980137 193.44757362233892 1107.175302980137 199.3575736223389Q1102.6653029801369 205.26757362233892 1102.6653029801369 211.2775736223389Q1102.6653029801369 219.6575736223389 1107.175302980137 224.81757362233893Q1111.695302980137 229.9675736223389 1118.565302980137 233.8375736223389V258.32757362233895Q1111.4753029801368 254.8975736223389 1104.385302980137 250.9175736223389Q1097.295302980137 246.94757362233887 1091.4953029801368 241.57757362233892Q1085.695302980137 236.19757362233892 1081.9353029801368 229.11757362233894Q1078.175302980137 222.02757362233896 1078.175302980137 212.13757362233892M1077.105302980137 318.277573622339L1081.6153029801371 299.797573622339Q1084.625302980137 301.517573622339 1089.2453029801368 303.127573622339Q1093.855302980137 304.737573622339 1098.8053029801367 306.137573622339Q1103.7453029801368 307.527573622339 1108.6853029801368 308.387573622339T1117.925302980137 309.247573622339H1118.565302980137V329.657573622339H1118.135302980137Q1112.985302980137 329.657573622339 1107.505302980137 329.117573622339Q1102.025302980137 328.58757362233905 1096.4353029801368 327.297573622339Q1090.855302980137 326.007573622339 1085.8053029801367 323.747573622339Q1080.755302980137 321.497573622339 1077.105302980137 318.277573622339M1127.375302980137 263.277573622339V238.13757362233898Q1134.465302980137 241.357573622339 1141.875302980137 245.00757362233898Q1149.2853029801367 248.667573622339 1155.3053029801367 253.927573622339T1165.1853029801368 266.70757362233894Q1169.0553029801367 274.2275736223389 1169.0553029801367 285.397573622339Q1169.0553029801367 293.137573622339 1166.155302980137 300.43757362233896Q1163.255302980137 307.7475736223389 1157.9953029801368 313.657573622339Q1152.7253029801368 319.55757362233896 1144.9953029801368 323.647573622339Q1137.255302980137 327.72757362233904 1127.375302980137 329.017573622339V308.387573622339Q1144.9953029801368 304.09757362233904 1144.9953029801368 284.96757362233905Q1144.9953029801368 277.44757362233906 1140.0553029801367 272.507573622339Q1135.105302980137 267.56757362233907 1127.375302980137 263.277573622339M1271.545302980137 245.43757362233904Q1276.485302980137 246.08757362233902 1282.0753029801372 248.66757362233906Q1287.655302980137 251.23757362233906 1292.4953029801368 255.96757362233907Q1297.3253029801372 260.69757362233906 1300.545302980137 267.45757362233905Q1303.775302980137 274.22757362233904 1303.775302980137 283.0375736223391Q1303.775302980137 293.7775736223391 1300.545302980137 301.5175736223391Q1297.3253029801367 309.24757362233913 1292.4953029801368 314.2975736223391Q1287.655302980137 319.34757362233904 1281.965302980137 322.24757362233913T1271.005302980137 326.6475736223391Q1265.7453029801368 328.1575736223391 1261.6653029801369 328.47757362233915T1256.295302980137 328.7975736223392H1231.3653029801371V309.8975736223392H1254.7853029801367Q1266.175302980137 309.8975736223392 1272.6153029801371 302.5875736223393Q1279.065302980137 295.2875736223393 1279.065302980137 283.0375736223393Q1279.065302980137 271.4375736223393 1272.405302980137 263.48757362233926T1252.855302980137 255.5375736223393H1231.3653029801371V238.13757362233932H1241.6853029801373Q1246.405302980137 238.13757362233932 1251.355302980137 237.9175736223393Q1256.295302980137 237.7075736223393 1260.585302980137 235.55757362233928Q1264.885302980137 233.4075736223393 1267.5753029801372 228.25757362233927Q1270.255302980137 223.09757362233924 1270.255302980137 213.42757362233928Q1270.255302980137 209.55757362233928 1269.1853029801368 205.36757362233928Q1268.105302980137 201.18757362233927 1264.885302980137 197.74757362233927T1255.6453029801369 192.1575736223393Q1249.635302980137 190.00757362233932 1239.7453029801372 190.00757362233932H1231.3653029801371V170.4575736223393H1242.3253029801372Q1252.425302980137 170.4575736223393 1261.875302980137 172.82757362233932Q1271.335302980137 175.18757362233933 1278.635302980137 180.3475736223393Q1285.9353029801368 185.49757362233927 1290.235302980137 193.7675736223393T1294.5353029801372 213.42757362233934Q1294.5353029801372 220.08757362233936 1292.385302980137 225.56757362233932T1287.0153029801372 235.12757362233933T1279.605302980137 241.8975736223393Q1275.4153029801369 244.57757362233932 1271.545302980137 245.43757362233933M1196.775302980137 328.7975736223393V170.45757362233897H1222.565302980137V328.797573622339ZM1010.625302980137 179.98257362233895C931.920302980137 185.54757362233894 869.0423029801369 248.42557362233893 863.4773029801369 327.13057362233894C863.0423029801369 333.273573622339 867.8903029801369 338.5015736223389 874.0473029801369 338.5015736223389H1011.4033029801369C1017.2553029801369 338.5015736223389 1021.9993029801369 333.7575736223389 1021.9993029801369 327.9055736223389V190.55257362233894C1021.9993029801369 184.39557362233896 1016.771302980137 179.55057362233893 1010.6293029801369 179.98257362233895ZM683.2203029801369 191.32757362233892C688.785302980137 270.0325736223389 751.663302980137 332.9105736223389 830.3693029801369 338.47557362233897C836.511302980137 338.9105736223389 841.7393029801369 334.06257362233896 841.7393029801369 327.9055736223389V190.54957362233895C841.7393029801369 184.69757362233898 836.9953029801369 179.95357362233895 831.1433029801369 179.95357362233895H693.790302980137C687.6333029801369 179.95357362233895 682.788302980137 185.18157362233896 683.2203029801369 191.32357362233896Z "/></g><rect width="674" height="384" x="663" y="0" id="space-saver" fill="transparent" stroke="transparent"/></g></svg>